<?xml version="1.0" encoding="UTF-8" standalone="no"?>
<svg
   xmlns:dc="http://purl.org/dc/elements/1.1/"
   xmlns:cc="http://creativecommons.org/ns#"
   xmlns:rdf="http://www.w3.org/1999/02/22-rdf-syntax-ns#"
   xmlns:svg="http://www.w3.org/2000/svg"
   xmlns="http://www.w3.org/2000/svg"
   xmlns:xlink="http://www.w3.org/1999/xlink"
   xmlns:sodipodi="http://sodipodi.sourceforge.net/DTD/sodipodi-0.dtd"
   xmlns:inkscape="http://www.inkscape.org/namespaces/inkscape"
   viewBox="0 0 48 48"
   version="1.1"
   id="svg4"
   sodipodi:docname="agreement-icon x48.svg"
   width="48"
   height="48"
   inkscape:export-filename="C:\Users\gillo\Documents\ERM - FOLIO\Icon design\Agreement icon\Version 1\agreement icon x48.svg.png"
   inkscape:export-xdpi="92.230003"
   inkscape:export-ydpi="92.230003"
   inkscape:version="0.92.4 (5da689c313, 2019-01-14)">
  <metadata
     id="metadata10">
    <rdf:RDF>
      <cc:Work
         rdf:about="">
        <dc:format>image/svg+xml</dc:format>
        <dc:type
           rdf:resource="http://purl.org/dc/dcmitype/StillImage" />
        <dc:title></dc:title>
      </cc:Work>
    </rdf:RDF>
  </metadata>
  <defs
     id="defs8">
    <linearGradient
       inkscape:collect="always"
       id="linearGradient8921">
      <stop
         style="stop-color:#800080;stop-opacity:1;"
         offset="0"
         id="stop8917" />
      <stop
         style="stop-color:#800080;stop-opacity:0;"
         offset="1"
         id="stop8919" />
    </linearGradient>
    <linearGradient
       inkscape:collect="always"
       xlink:href="#linearGradient8921"
       id="linearGradient8923"
       x1="25.290573"
       y1="47.453224"
       x2="24.74375"
       y2="-72.984589"
       gradientUnits="userSpaceOnUse" />
    <clipPath
       clipPathUnits="userSpaceOnUse"
       id="clipPath936">
      <path
         inkscape:export-ydpi="46.257568"
         inkscape:export-xdpi="46.257568"
         inkscape:export-filename="C:\Users\gillo\Documents\ERM - FOLIO\Icon design\Agreement icon\Version 1\folder purple-white24.png"
         inkscape:connector-curvature="0"
         id="path938"
         d="m 9.7858527,47.792081 c -4.1992326,-0.71127 -7.7801843,-3.78628 -9.0980256,-7.81259 -0.62245022,-1.90172 -0.59157437,-1.07049 -0.59157437,-15.92622 0,-12.75526 0.008568,-13.46944 0.17201059,-14.33714 C 0.74556409,7.182161 1.7373564,5.309451 3.5600238,3.500591 5.2592757,1.814211 6.9216329,0.90561102 9.425738,0.29456102 c 0.586022,-0.14301 1.775375,-0.15906 14.039961,-0.18946 9.290873,-0.023 13.665395,-0.003 14.266179,0.0664 5.009525,0.57586 8.924468,4.14978998 10.080825,9.20274998 l 0.203629,0.8898 0.03257,13.05868 c 0.03298,13.22201 0.01297,14.26072 -0.300472,15.60521 -0.617666,2.64938 -2.168338,5.03364 -4.328906,6.656 -1.346327,1.01094 -2.611044,1.60841 -4.450415,2.10243 l -0.731724,0.19652 -13.857029,0.0171 c -11.362101,0.014 -13.98981,-0.005 -14.5945023,-0.10786 z"
         style="fill:none;fill-opacity:1;stroke:#000000;stroke-width:2;stroke-miterlimit:4;stroke-dasharray:none;stroke-opacity:0.07843137" />
    </clipPath>
  </defs>
  <sodipodi:namedview
     pagecolor="#ffffff"
     bordercolor="#666666"
     borderopacity="1"
     objecttolerance="10"
     gridtolerance="10"
     guidetolerance="10"
     inkscape:pageopacity="0"
     inkscape:pageshadow="2"
     inkscape:window-width="1244"
     inkscape:window-height="1009"
     id="namedview6"
     showgrid="false"
     inkscape:snap-bbox="true"
     inkscape:snap-global="false"
     showguides="true"
     inkscape:zoom="7.3149787"
     inkscape:cx="3.9693497"
     inkscape:cy="28.150338"
     inkscape:window-x="553"
     inkscape:window-y="55"
     inkscape:window-maximized="0"
     inkscape:current-layer="g932"
     fit-margin-top="0"
     fit-margin-left="0"
     fit-margin-right="0"
     fit-margin-bottom="0" />
  <g
     style="display:inline"
     inkscape:groupmode="layer"
     id="g8915"
     inkscape:label="Background - purple - backup"
     transform="translate(-0.09600122,0.09595094)">
    <path
       style="fill:url(#linearGradient8923);fill-opacity:1;stroke:none;stroke-width:1.89999998;stroke-miterlimit:4;stroke-dasharray:none;stroke-opacity:0.07843137"
       d="m 9.7858527,47.792081 c -4.1992326,-0.71127 -7.7801843,-3.78628 -9.0980256,-7.81259 -0.62245022,-1.90172 -0.59157437,-1.07049 -0.59157437,-15.92622 0,-12.75526 0.008568,-13.46944 0.17201059,-14.33714 C 0.74556409,7.182161 1.7373564,5.309451 3.5600238,3.500591 5.2592757,1.814211 6.9216329,0.90561102 9.425738,0.29456102 c 0.586022,-0.14301 1.775375,-0.15906 14.039961,-0.18946 9.290873,-0.023 13.665395,-0.003 14.266179,0.0664 5.009525,0.57586 8.924468,4.14978998 10.080825,9.20274998 l 0.203629,0.8898 0.03257,13.05868 c 0.03298,13.22201 0.01297,14.26072 -0.300472,15.60521 -0.617666,2.64938 -2.168338,5.03364 -4.328906,6.656 -1.346327,1.01094 -2.611044,1.60841 -4.450415,2.10243 l -0.731724,0.19652 -13.857029,0.0171 c -11.362101,0.014 -13.98981,-0.005 -14.5945023,-0.10786 z"
       id="path8913"
       inkscape:connector-curvature="0"
       inkscape:export-filename="C:\Users\gillo\Documents\ERM - FOLIO\Icon design\Agreement icon\Version 1\folder purple-white24.png"
       inkscape:export-xdpi="46.257568"
       inkscape:export-ydpi="46.257568" />
  </g>
  <g
     transform="translate(-0.09600122,0.09595094)"
     inkscape:label="Background - purple - inner border"
     id="g932"
     inkscape:groupmode="layer"
     style="display:inline">
    <path
       style="fill:none;fill-opacity:1;stroke:#000000;stroke-width:4;stroke-miterlimit:4;stroke-dasharray:none;stroke-opacity:0.07843137"
       d="m 9.7858527,47.792081 c -4.1992326,-0.71127 -7.7801843,-3.78628 -9.0980256,-7.81259 -0.62245022,-1.90172 -0.59157437,-1.07049 -0.59157437,-15.92622 0,-12.75526 0.008568,-13.46944 0.17201059,-14.33714 C 0.74556409,7.182161 1.7373564,5.309451 3.5600238,3.500591 5.2592757,1.814211 6.9216329,0.90561102 9.425738,0.29456102 c 0.586022,-0.14301 1.775375,-0.15906 14.039961,-0.18946 9.290873,-0.023 13.665395,-0.003 14.266179,0.0664 5.009525,0.57586 8.924468,4.14978998 10.080825,9.20274998 l 0.203629,0.8898 0.03257,13.05868 c 0.03298,13.22201 0.01297,14.26072 -0.300472,15.60521 -0.617666,2.64938 -2.168338,5.03364 -4.328906,6.656 -1.346327,1.01094 -2.611044,1.60841 -4.450415,2.10243 l -0.731724,0.19652 -13.857029,0.0171 c -11.362101,0.014 -13.98981,-0.005 -14.5945023,-0.10786 z"
       id="path934"
       inkscape:connector-curvature="0"
       inkscape:export-filename="C:\Users\gillo\Documents\ERM - FOLIO\Icon design\Agreement icon\Version 1\folder purple-white24.png"
       inkscape:export-xdpi="46.257568"
       inkscape:export-ydpi="46.257568"
       clip-path="url(#clipPath936)" />
  </g>
  <rect
     style="fill:none;stroke:none;stroke-width:0.273;stroke-miterlimit:4;stroke-dasharray:none;stroke-opacity:0.63529412"
     id="rect8531"
     width="12.576934"
     height="23.78681"
     x="8.1063461"
     y="11.782842"
     ry="6.2884669" />
  <g
     style="display:inline"
     inkscape:label="Seal purple"
     id="g8939"
     inkscape:groupmode="layer"
     transform="translate(-0.09600122,0.09595094)">
    <path
       transform="matrix(0.91950378,0.34348473,-0.34348473,0.91950378,10.20729,-6.6142154)"
       d="m 34.80018,35.958144 c -2.467653,2.199065 -1.464223,4.049858 -4.585584,5.1372 -3.12136,1.087341 -3.485031,-0.986316 -6.784899,-1.176236 -3.299869,-0.189921 -3.899046,1.82832 -6.875047,0.390051 C 13.578649,38.870891 14.787791,37.14744 12.588726,34.679786 10.389661,32.212133 8.5388668,33.215563 7.4515255,30.094203 6.3641844,26.972843 8.4378409,26.609171 8.6277614,23.309303 8.817682,20.009434 6.7994412,19.410258 8.2377098,16.434256 9.6759782,13.458255 11.39943,14.667397 13.867083,12.468332 c 2.467653,-2.199065 1.464223,-4.0498589 4.585584,-5.1372002 3.12136,-1.0873412 3.485032,0.9863153 6.7849,1.1762359 3.299868,0.1899205 3.899045,-1.8283202 6.875046,-0.3900517 2.976001,1.4382685 1.766859,3.16172 3.965924,5.629373 2.199065,2.467653 4.049859,1.464224 5.1372,4.585584 1.087342,3.12136 -0.986315,3.485032 -1.176235,6.7849 -0.189921,3.299868 1.82832,3.899045 0.390051,6.875046 -1.438268,2.976001 -3.16172,1.76686 -5.629373,3.965925 z"
       inkscape:randomized="0"
       inkscape:rounded="0.48"
       inkscape:flatsided="false"
       sodipodi:arg2="1.2355878"
       sodipodi:arg1="0.8428887"
       sodipodi:r2="17.877115"
       sodipodi:r1="15.731861"
       sodipodi:cy="24.213238"
       sodipodi:cx="24.333632"
       sodipodi:sides="8"
       id="path8925"
       style="fill:#ffffff;fill-opacity:1;stroke:none;stroke-width:2.04163861;stroke-miterlimit:4;stroke-dasharray:none;stroke-opacity:0.07843137"
       sodipodi:type="star" />
    <circle
       r="12.440228"
       cy="24.076532"
       cx="24.196926"
       id="circle8927"
       style="fill:#760076;fill-opacity:1;stroke:none;stroke-width:2.80559993;stroke-miterlimit:4;stroke-dasharray:none;stroke-opacity:0.07843137"
       inkscape:export-filename="C:\Users\gillo\Documents\ERM - FOLIO\Icon design\Agreement icon\teal seal.png"
       inkscape:export-xdpi="92.602806"
       inkscape:export-ydpi="92.602806" />
    <text
       id="text8931"
       y="18.198181"
       x="23.78681"
       style="font-style:normal;font-variant:normal;font-weight:normal;font-stretch:normal;font-size:40px;line-height:1.25;font-family:Symbol;-inkscape-font-specification:Symbol;letter-spacing:0px;word-spacing:0px;fill:#000000;fill-opacity:1;stroke:none"
       xml:space="preserve"><tspan
         y="53.703014"
         x="23.78681"
         id="tspan8929"
         sodipodi:role="line" /></text>
    <text
       id="text8935"
       y="22.162649"
       x="21.599516"
       style="font-style:normal;font-variant:normal;font-weight:normal;font-stretch:normal;font-size:40px;line-height:1.25;font-family:Symbol;-inkscape-font-specification:Symbol;letter-spacing:0px;word-spacing:0px;fill:#000000;fill-opacity:1;stroke:none"
       xml:space="preserve"><tspan
         y="57.667484"
         x="21.599516"
         id="tspan8933"
         sodipodi:role="line" /></text>
    <path
       sodipodi:nodetypes="ccc"
       inkscape:connector-curvature="0"
       id="path8937"
       d="m 17.060294,25.002016 4.160491,4.093611 9.839477,-9.49624"
       style="fill:none;stroke:#ffffff;stroke-width:4.37400007;stroke-linecap:round;stroke-linejoin:miter;stroke-miterlimit:4;stroke-dasharray:none;stroke-opacity:1" />
  </g>
</svg>
