<svg xmlns="http://www.w3.org/2000/svg" xmlns:xlink="http://www.w3.org/1999/xlink" width="48" height="48"><defs><linearGradient id="a"><stop offset="0" stop-color="purple"/><stop offset="1" stop-color="purple" stop-opacity="0"/></linearGradient><linearGradient xlink:href="#a" id="b" x1="25.291" y1="47.453" x2="24.744" y2="-72.985" gradientUnits="userSpaceOnUse"/><clipPath id="c"><path d="M9.786 47.792c-4.2-.711-7.78-3.786-9.098-7.813-.623-1.901-.592-1.07-.592-15.926 0-12.755.009-13.47.172-14.337.478-2.534 1.47-4.407 3.292-6.215C5.26 1.814 6.922.906 9.426.295c.586-.143 1.775-.16 14.04-.19C32.756.082 37.13.102 37.732.172c5.01.575 8.924 4.15 10.08 9.202l.204.89.033 13.059c.033 13.222.013 14.26-.3 15.605a11.686 11.686 0 0 1-4.33 6.656c-1.346 1.01-2.61 1.608-4.45 2.102l-.732.197-13.857.017c-11.362.014-13.99-.005-14.594-.108z" fill="none" stroke="#000" stroke-width="2" stroke-opacity=".078"/></clipPath></defs><path d="M9.786 47.792c-4.2-.711-7.78-3.786-9.098-7.813-.623-1.901-.592-1.07-.592-15.926 0-12.755.009-13.47.172-14.337.478-2.534 1.47-4.407 3.292-6.215C5.26 1.814 6.922.906 9.426.295c.586-.143 1.775-.16 14.04-.19C32.756.082 37.13.102 37.732.172c5.01.575 8.924 4.15 10.08 9.202l.204.89.033 13.059c.033 13.222.013 14.26-.3 15.605a11.686 11.686 0 0 1-4.33 6.656c-1.346 1.01-2.61 1.608-4.45 2.102l-.732.197-13.857.017c-11.362.014-13.99-.005-14.594-.108z" fill="url(#b)" transform="translate(-.096 .096)"/><path d="M9.786 47.792c-4.2-.711-7.78-3.786-9.098-7.813-.623-1.901-.592-1.07-.592-15.926 0-12.755.009-13.47.172-14.337.478-2.534 1.47-4.407 3.292-6.215C5.26 1.814 6.922.906 9.426.295c.586-.143 1.775-.16 14.04-.19C32.756.082 37.13.102 37.732.172c5.01.575 8.924 4.15 10.08 9.202l.204.89.033 13.059c.033 13.222.013 14.26-.3 15.605a11.686 11.686 0 0 1-4.33 6.656c-1.346 1.01-2.61 1.608-4.45 2.102l-.732.197-13.857.017c-11.362.014-13.99-.005-14.594-.108z" clip-path="url(#c)" fill="none" stroke="#000" stroke-width="4" stroke-opacity=".078" transform="translate(-.096 .096)"/><rect width="12.577" height="23.787" x="8.106" y="11.783" ry="6.288" fill="none"/><g transform="translate(-.096 .096)"><path d="M29.855 38.403c-3.024 1.174-2.737 3.22-5.98 3.148-3.244-.072-2.867-2.104-5.836-3.412-2.969-1.308-4.213.342-6.455-2.003-2.243-2.344-.539-3.514-1.713-6.538-1.175-3.024-3.221-2.737-3.149-5.981.072-3.244 2.104-2.866 3.412-5.835 1.308-2.969-.342-4.213 2.003-6.455 2.345-2.243 3.514-.539 6.538-1.713 3.025-1.175 2.738-3.221 5.981-3.149 3.244.072 2.866 2.104 5.835 3.412 2.97 1.308 4.213-.342 6.456 2.003 2.242 2.345.538 3.514 1.713 6.538 1.174 3.025 3.22 2.738 3.148 5.981-.072 3.244-2.104 2.866-3.412 5.835-1.308 2.97.342 4.213-2.002 6.456-2.345 2.242-3.515.538-6.539 1.713z" fill="#fff"/><circle r="12.44" cy="24.077" cx="24.197" fill="#760076"/><text y="18.198" x="23.787" style="line-height:1.25;-inkscape-font-specification:Symbol" font-weight="400" font-size="40" font-family="Symbol" letter-spacing="0" word-spacing="0"/><text y="22.163" x="21.6" style="line-height:1.25;-inkscape-font-specification:Symbol" font-weight="400" font-size="40" font-family="Symbol" letter-spacing="0" word-spacing="0"/><path d="M17.06 25.002l4.16 4.094 9.84-9.497" fill="none" stroke="#fff" stroke-width="4.374" stroke-linecap="round"/></g></svg>