<svg xmlns="http://www.w3.org/2000/svg" xmlns:xlink="http://www.w3.org/1999/xlink" width="48" height="48"><defs><linearGradient id="a"><stop offset="0" stop-color="#818181"/><stop offset="1" stop-color="#818181" stop-opacity="0"/></linearGradient><linearGradient xlink:href="#a" id="b" x1="25" y1="48" x2="25" y2="-26" gradientUnits="userSpaceOnUse"/><clipPath clipPathUnits="userSpaceOnUse" id="c"><path d="M9.786 47.792c-4.2-.711-7.78-3.786-9.098-7.813-.623-1.901-.592-1.07-.592-15.926 0-12.755.009-13.47.172-14.337.478-2.534 1.47-4.407 3.292-6.215C5.26 1.814 6.922.906 9.426.295c.586-.143 1.775-.16 14.04-.19C32.756.082 37.13.102 37.732.172c5.01.575 8.924 4.15 10.08 9.202l.204.89.033 13.059c.033 13.222.013 14.26-.3 15.605a11.686 11.686 0 01-4.33 6.656c-1.346 1.01-2.61 1.608-4.45 2.102l-.732.197-13.857.017c-11.362.014-13.99-.005-14.594-.108z" fill="none" stroke="#000" stroke-width="2" stroke-opacity=".078"/></clipPath></defs><path d="M9.7 48.1c-4.2-1-7.8-4-9.11-8-.62-2-.59-1-.59-16 0-13 0-13 .17-14.3C.65 7.3 1.6 5.4 3.5 3.6 5.2 1.9 6.8 1.01 9.3.39 9.9.25 10.9.24 22.9.21c10-.03 14-.01 15 .06 5 .58 9 4.13 10 9.23v29.6c-1 3-2 5-5 7-1 1-2 1-4 2H9.7z" fill="#fff"/><path d="M9.8 48C5.6 47 2 44 .69 40 .07 38 .1 39 .1 24c0-13 0-13 .17-14.3C.75 7.2 1.7 5.3 3.6 3.5 5.3 1.8 6.9.91 9.4.29 10 .15 11 .14 23 .11 33 .08 37 .1 38 .17c5 .58 9 4.13 10 9.23V39c-1 3-2 5-5 7-1 1-2 1-4 2H9.8z" fill="url(#b)" transform="translate(-.1 .1)"/><path d="M9.8 48C5.6 47 2 44 .69 40 .07 38 .1 39 .1 24c0-13 0-13 .17-14.3C.75 7.2 1.7 5.3 3.6 3.5 5.3 1.8 6.9.91 9.4.29 10 .15 11 .14 23 .11 33 .08 37 .1 38 .17c5 .58 9 4.13 10 9.23V39c-1 3-2 5-5 7-1 1-2 1-4 2H9.8z" clip-path="url(#c)" fill="none" stroke="#000" stroke-width="4" stroke-opacity=".08" transform="translate(-.1 .1)"/><rect width="12.577" height="23.787" x="8.106" y="11.783" ry="6.288" fill="none"/><g transform="translate(-.1 .1)"><path d="M29.96 38.42c-3.44.82-3.2 3-5.38 3.24-4.02-.44-3.34-2.28-7.02-3.64-2.76-1.02-3.44.82-5.52-2.04-2.42-1.94-.82-3.44-2.9-6.3-.82-3.44-2.816-3.132-3.056-5.312.256-4.088 2.004-3.442 3.456-7.088 1.112-2.726-.636-3.372 1.58-5.69 2.492-2.216 3.9-.65 6.76-2.73 3.44-.82 3.132-2.816 5.312-3.056 4.088.256 3.442 2.004 7.088 3.456 2.726 1.112 3.372-.636 5.69 1.58 2.216 2.492.65 3.9 2.73 6.76.82 3.44 3 3.2 3.24 5.38C41.5 27 39.66 26.32 38.3 30c-1.02 2.76.82 3.44-2.04 5.52-1.94 2.42-3.44.82-6.3 2.9z" fill="#fff"/><circle cy="24" cx="24" r="12" fill="#999"/><text y="18" x="24" style="line-height:1.25;-inkscape-font-specification:Symbol" font-weight="400" font-size="40" font-family="Symbol" letter-spacing="0" word-spacing="0"/><text y="22" x="22" style="line-height:1.25;-inkscape-font-specification:Symbol" font-weight="400" font-size="40" font-family="Symbol" letter-spacing="0" word-spacing="0"/><path d="M17 25l4 4 10-9" fill="none" stroke="#fff" stroke-width="4.37" stroke-linecap="round"/></g></svg>